<svg aria-hidden="true" style="position: absolute; width: 0; height: 0; overflow: hidden;" version="1.1" xmlns="http://www.w3.org/2000/svg" xmlns:xlink="http://www.w3.org/1999/xlink">
<defs>
<symbol id="icon-users" viewBox="0 0 18 18">
<path d="M14.6 7h-0.14c0.341-0.589 0.54-1.27 0.54-2 0-2.209-1.791-4-4-4s-4 1.791-4 4c-2.209 0-4 1.791-4 4 0 0.729 0.198 1.411 0.54 2h-0.14c-1.425 0.638-2.4 2.005-2.4 3.463v1.537c0 0.351 0.554 1 0.969 1h10.156c0.415 0 0.875-0.649 0.875-1v-1.537c0-0.509-0.125-1.004-0.34-1.463h3.465c0.415 0 0.875-0.649 0.875-1v-1.537c0-1.458-0.975-2.825-2.4-3.463zM11 3c1.103 0 2 0.897 2 2s-0.897 2-2 2c-0.211 0-0.411-0.042-0.602-0.103-0.326-0.526-0.77-0.969-1.296-1.295-0.061-0.191-0.103-0.391-0.103-0.602 0-1.103 0.897-2 2-2zM7 7c1.105 0 2 0.896 2 2s-0.896 2-2 2c-0.988 0-1.805-0.719-1.966-1.661-0.021-0.11-0.034-0.222-0.034-0.339 0-1.105 0.896-2 2-2zM11 15h-8v-0.537c0-0.543 0.356-1.107 0.898-1.463h6.203c0.542 0.356 0.898 0.92 0.898 1.463v0.537zM15 11h-4.54c0.341-0.589 0.54-1.27 0.54-2h3.102c0.542 0.356 0.898 0.92 0.898 1.463v0.537z"></path>
</symbol>
<symbol id="icon-emoji-happy" viewBox="0 0 20 20">
<path d="M10 0.4c-5.302 0-9.6 4.298-9.6 9.6s4.298 9.6 9.6 9.6c5.301 0 9.6-4.298 9.6-9.601 0-5.301-4.299-9.599-9.6-9.599zM10 17.599c-4.197 0-7.6-3.402-7.6-7.6s3.402-7.599 7.6-7.599c4.197 0 7.601 3.402 7.601 7.6s-3.404 7.599-7.601 7.599zM7.501 9.75c0.828 0 1.499-0.783 1.499-1.75s-0.672-1.75-1.5-1.75-1.5 0.783-1.5 1.75 0.672 1.75 1.501 1.75zM12.5 9.75c0.829 0 1.5-0.783 1.5-1.75s-0.672-1.75-1.5-1.75-1.5 0.784-1.5 1.75 0.672 1.75 1.5 1.75zM14.341 11.336c-0.363-0.186-0.815-0.043-1.008 0.32-0.034 0.066-0.869 1.593-3.332 1.593-2.451 0-3.291-1.513-3.333-1.592-0.188-0.365-0.632-0.514-1.004-0.329-0.37 0.186-0.52 0.636-0.335 1.007 0.050 0.099 1.248 2.414 4.672 2.414 3.425 0 4.621-2.316 4.67-2.415 0.184-0.367 0.036-0.81-0.33-0.998z"></path>
</symbol>
<symbol id="icon-coin-dollar" viewBox="0 0 32 32">
<path d="M15 2c-8.284 0-15 6.716-15 15s6.716 15 15 15c8.284 0 15-6.716 15-15s-6.716-15-15-15zM15 29c-6.627 0-12-5.373-12-12s5.373-12 12-12c6.627 0 12 5.373 12 12s-5.373 12-12 12zM16 16v-4h4v-2h-4v-2h-2v2h-4v8h4v4h-4v2h4v2h2v-2h4l-0-8h-4zM14 16h-2v-4h2v4zM18 22h-2v-4h2v4z"></path>
</symbol>
</defs>
</svg>
